<?xml version="1.0" encoding="UTF-8"?>
<svg id="Capa_1" xmlns="http://www.w3.org/2000/svg" viewBox="0 0 883.63 198">
  <defs>
    <style>
      .cls-1 {
        fill: #fff;
      }

      .cls-2 {
        fill: #a8a8a8;
      }

      .cls-3 {
        fill: #1e396c;
      }
    </style>
  </defs>
  <rect class="cls-1" width="883.63" height="198"/>
  <g>
    <g>
      <path class="cls-2" d="M127.51,10.2c-1.92,0-3.82.07-5.7.19,46.39,2.94,83.1,41.49,83.1,88.62s-36.71,85.68-83.1,88.62c1.89.12,3.79.19,5.7.19,49.05,0,88.8-39.76,88.8-88.8S176.56,10.2,127.51,10.2Z"/>
      <path class="cls-2" d="M27.3,99c0-47.23,36.87-85.84,83.4-88.64-1.79-.11-3.59-.17-5.4-.17-49.05,0-88.8,39.76-88.8,88.8s39.76,88.8,88.8,88.8c1.81,0,3.61-.06,5.4-.17-46.53-2.79-83.4-41.41-83.4-88.64Z"/>
    </g>
    <g>
      <g>
        <path class="cls-3" d="M299.57,47.55h-29.66v4.41l10.27,1.18c.19,9.52.21,19.09.21,28.58v5.51c0,9.65-.01,19.21-.2,28.58l-10.27,1.18v4.41h30.87v-4.41l-10.28-1.19c-.17-7.99-.19-15.63-.19-23.62h5.95c22.49,0,30.98-10.36,30.98-22.71s-9.37-21.94-27.67-21.94ZM297.91,87.12h-7.61v-5.4c0-9.83.01-19.57.22-29.1h6.95c13.34,0,19.29,6.17,19.29,16.87s-5.29,17.64-18.85,17.64Z"/>
        <path class="cls-3" d="M385.23,99.47c-2.59-8.64-6.61-12.52-12.85-13.88,12.29-2.13,18.58-10,18.58-18.64,0-12.24-9.92-19.4-26.79-19.4h-30.54v4.41l10.27,1.18c.19,9.52.21,19.09.21,28.58v5.51c0,9.65-.01,19.21-.2,28.58l-10.27,1.18v4.41h30.87v-4.41l-10.28-1.19c-.19-9.21-.2-18.58-.2-28.58h5.51c9.15,0,13.23,1.54,15.43,10.47l4.52,17.97c1.32,5.07,4.3,6.83,11.13,6.83,3.31,0,5.95-.44,7.94-1.1v-4.41l-8.46-.98-4.88-16.54ZM354.03,82.27c0-10.84,0-20.17.21-29.66h9.83c11.47,0,16.43,5.07,16.43,14.33s-5.73,15.32-17.64,15.32h-8.82Z"/>
        <path class="cls-3" d="M454.33,115.9h-28.54c-.19-9.48-.2-19.15-.2-29.66h16.66l1.42,10.47h4.96v-26.13h-4.96l-1.5,10.58h-16.58c0-9.49.02-18.9.21-28.11h26.33l2.46,14.11h6.17l-.77-19.62h-54.79v4.41l10.27,1.18c.19,9.52.21,19.09.21,28.58v5.51c0,9.65-.01,19.21-.2,28.58l-10.27,1.18v4.41h57l.77-19.62h-6.17l-2.46,14.11Z"/>
        <polygon class="cls-3" points="524.81 47.55 513.01 47.55 513.01 52.51 522.8 53.49 504.77 106.81 485.96 53.39 496.58 52.51 496.58 47.55 483.91 47.55 473.32 47.55 466.82 47.55 466.82 51.96 475.33 52.94 501.1 122.18 505.51 122.18 528.83 53.26 538.48 51.96 538.48 47.55 530.76 47.55 524.81 47.55"/>
        <path class="cls-3" d="M554.69,47.55h-10.14v4.41l10.27,1.18c.19,9.52.21,19.09.21,28.58v5.51c0,9.65-.01,19.21-.2,28.58l-10.27,1.18v4.41h30.87v-4.41l-10.27-1.18c-.19-9.52-.21-19.09-.21-28.58v-5.51c0-9.65.01-19.21.2-28.58l10.27-1.18v-4.41h-20.73Z"/>
        <path class="cls-3" d="M620.39,47h-6.61l-23.58,68.61-9.27,1.39v4.41h25.36v-4.41l-10.89-1.48,6.21-18.25h25.79l6.18,18.43-10.98,1.31v4.41h29.77v-4.41l-8.47-1.02-23.5-68.98ZM603.33,92.2l11.26-33.07,11.1,33.07h-22.36Z"/>
        <polygon class="cls-3" points="714.11 47.55 702.53 47.55 702.53 51.96 714.11 53.4 714.11 102.91 673.87 47.55 657.33 47.55 657.33 51.96 665.18 52.94 666.15 54.26 666.15 115.66 656.78 117 656.78 121.41 666.15 121.41 671.66 121.41 683.24 121.41 683.24 117 671.66 115.49 671.66 61.76 716.09 122.18 719.62 122.18 719.62 110.5 719.62 53.36 728.99 51.96 728.99 47.55 719.62 47.55 714.11 47.55"/>
        <polygon class="cls-3" points="782.2 115.9 747.36 115.9 789.41 51.4 789.41 47.55 785.66 47.55 781.36 47.55 737.59 47.55 736.71 67.17 743.32 67.17 746.34 53.06 777.75 53.06 735.61 117.55 735.61 121.41 739.46 121.41 743.76 121.41 790.95 121.41 791.83 101.79 785.22 101.79 782.2 115.9"/>
        <path class="cls-3" d="M857.56,115.98l-23.5-68.98h-6.61l-23.58,68.61-9.27,1.39v4.41h25.36v-4.41l-10.89-1.48,6.21-18.25h25.79l6.18,18.43-10.98,1.31v4.41h29.77v-4.41l-8.47-1.02ZM817,92.2l11.26-33.07,11.1,33.07h-22.36Z"/>
      </g>
      <g>
        <path class="cls-3" d="M278.51,151.47l5.37,14.37h-3.28l-1.09-3.2h-5.37l-1.13,3.2h-3.18l5.43-14.37h3.24ZM278.7,160.29l-1.81-5.27h-.04l-1.87,5.27h3.72Z"/>
        <path class="cls-3" d="M296.79,165.73c-.68.29-1.38.43-2.07.43-1.1,0-2.09-.19-2.97-.57-.88-.38-1.62-.91-2.22-1.58-.6-.67-1.07-1.46-1.39-2.37-.32-.91-.48-1.88-.48-2.93s.16-2.07.48-2.99c.32-.92.79-1.72,1.39-2.41.6-.68,1.35-1.22,2.22-1.61.88-.39,1.87-.58,2.97-.58.74,0,1.45.11,2.14.33s1.31.55,1.87.98c.56.43,1.02.96,1.38,1.59.36.63.58,1.36.66,2.17h-3.02c-.19-.8-.55-1.41-1.09-1.81-.54-.4-1.19-.6-1.95-.6-.71,0-1.31.14-1.81.41-.5.28-.9.64-1.21,1.11s-.53.99-.67,1.58c-.14.59-.21,1.2-.21,1.83s.07,1.19.21,1.76c.14.57.37,1.08.67,1.54s.71.82,1.21,1.1c.5.27,1.1.41,1.81.41,1.05,0,1.85-.26,2.42-.79.57-.53.9-1.3,1-2.3h-3.18v-2.36h6.04v7.77h-2.01l-.32-1.63c-.56.72-1.19,1.23-1.87,1.52Z"/>
        <path class="cls-3" d="M317.44,151.47v2.66h-7.59v3.08h6.96v2.46h-6.96v3.52h7.75v2.66h-10.91v-14.37h10.75Z"/>
        <path class="cls-3" d="M326.01,151.47l6,9.64h.04v-9.64h2.96v14.37h-3.16l-5.98-9.62h-.04v9.62h-2.96v-14.37h3.14Z"/>
        <path class="cls-3" d="M350.14,155.3c-.19-.3-.42-.57-.7-.79s-.6-.41-.96-.53-.73-.19-1.12-.19c-.71,0-1.31.14-1.81.41-.5.28-.9.64-1.21,1.11s-.53.99-.67,1.58c-.14.59-.21,1.2-.21,1.83s.07,1.19.21,1.76c.14.57.37,1.08.67,1.54s.71.82,1.21,1.1c.5.27,1.1.41,1.81.41.97,0,1.72-.29,2.26-.89.54-.59.88-1.37,1-2.33h3.06c-.08.9-.29,1.71-.62,2.43-.34.72-.78,1.34-1.33,1.85-.55.51-1.19.9-1.93,1.17-.74.27-1.55.4-2.44.4-1.1,0-2.09-.19-2.97-.57-.88-.38-1.62-.91-2.22-1.58-.6-.67-1.07-1.46-1.39-2.37-.32-.91-.48-1.88-.48-2.93s.16-2.07.48-2.99c.32-.92.79-1.72,1.39-2.41.6-.68,1.35-1.22,2.22-1.61.88-.39,1.87-.58,2.97-.58.79,0,1.54.11,2.24.34.7.23,1.33.56,1.89,1,.56.44,1.02.98,1.38,1.62.36.64.59,1.38.68,2.21h-3.06c-.05-.36-.17-.69-.36-1Z"/>
        <path class="cls-3" d="M362.13,151.47v14.37h-3.16v-14.37h3.16Z"/>
        <path class="cls-3" d="M375.21,151.47l5.37,14.37h-3.28l-1.09-3.2h-5.37l-1.13,3.2h-3.18l5.43-14.37h3.24ZM375.39,160.29l-1.81-5.27h-.04l-1.87,5.27h3.72Z"/>
        <path class="cls-3" d="M400.87,151.47l5.37,14.37h-3.28l-1.09-3.2h-5.37l-1.13,3.2h-3.18l5.43-14.37h3.24ZM401.05,160.29l-1.81-5.27h-.04l-1.87,5.27h3.72Z"/>
        <path class="cls-3" d="M413.05,162.3c.17.34.41.61.69.82.29.21.63.36,1.02.46s.79.15,1.21.15c.28,0,.58-.02.91-.07.32-.05.62-.14.91-.27s.52-.32.7-.55c.19-.23.28-.53.28-.9,0-.39-.12-.7-.37-.95-.25-.24-.57-.44-.98-.6-.4-.16-.86-.3-1.37-.42-.51-.12-1.03-.25-1.55-.4-.54-.13-1.06-.3-1.57-.49s-.97-.45-1.37-.75c-.4-.31-.73-.69-.98-1.16-.25-.46-.37-1.02-.37-1.68,0-.74.16-1.38.47-1.92.31-.54.73-1,1.24-1.36.51-.36,1.09-.63,1.73-.8.64-.17,1.29-.26,1.93-.26.75,0,1.47.08,2.16.25.69.17,1.3.44,1.84.82.54.38.96.86,1.28,1.44.31.58.47,1.29.47,2.12h-3.06c-.03-.43-.12-.79-.27-1.07-.15-.28-.36-.5-.61-.66s-.55-.27-.88-.34-.69-.1-1.08-.1c-.25,0-.51.03-.76.08-.25.05-.49.15-.69.28s-.38.3-.51.5-.2.46-.2.76c0,.28.05.51.16.68.11.17.32.33.63.48.31.15.75.3,1.31.44s1.28.33,2.18.56c.27.05.64.15,1.12.29.48.14.95.37,1.42.67s.88.72,1.22,1.24c.34.52.51,1.18.51,1.98,0,.66-.13,1.27-.38,1.83s-.63,1.05-1.14,1.46c-.5.41-1.13.73-1.87.96-.74.23-1.61.34-2.59.34-.79,0-1.56-.1-2.3-.29s-1.4-.5-1.97-.92c-.57-.42-1.02-.95-1.36-1.59-.34-.64-.5-1.41-.48-2.29h3.06c0,.48.09.89.26,1.23Z"/>
        <path class="cls-3" d="M437.58,151.47v2.66h-7.59v3.08h6.96v2.46h-6.96v3.52h7.75v2.66h-10.91v-14.37h10.75Z"/>
        <path class="cls-3" d="M445.43,162.3c.17.34.41.61.69.82.29.21.63.36,1.02.46s.79.15,1.21.15c.28,0,.58-.02.91-.07.32-.05.62-.14.91-.27s.52-.32.7-.55c.19-.23.28-.53.28-.9,0-.39-.12-.7-.37-.95-.25-.24-.57-.44-.98-.6-.4-.16-.86-.3-1.37-.42-.51-.12-1.03-.25-1.55-.4-.54-.13-1.06-.3-1.57-.49s-.97-.45-1.37-.75c-.4-.31-.73-.69-.98-1.16-.25-.46-.37-1.02-.37-1.68,0-.74.16-1.38.47-1.92.31-.54.73-1,1.24-1.36.51-.36,1.09-.63,1.73-.8.64-.17,1.29-.26,1.93-.26.75,0,1.47.08,2.16.25.69.17,1.3.44,1.84.82.54.38.96.86,1.28,1.44.31.58.47,1.29.47,2.12h-3.06c-.03-.43-.12-.79-.27-1.07-.15-.28-.36-.5-.61-.66s-.55-.27-.88-.34-.69-.1-1.08-.1c-.25,0-.51.03-.76.08-.25.05-.49.15-.69.28s-.38.3-.51.5-.2.46-.2.76c0,.28.05.51.16.68.11.17.32.33.63.48.31.15.75.3,1.31.44s1.28.33,2.18.56c.27.05.64.15,1.12.29.48.14.95.37,1.42.67s.88.72,1.22,1.24c.34.52.51,1.18.51,1.98,0,.66-.13,1.27-.38,1.83s-.63,1.05-1.14,1.46c-.5.41-1.13.73-1.87.96-.74.23-1.61.34-2.59.34-.79,0-1.56-.1-2.3-.29s-1.4-.5-1.97-.92c-.57-.42-1.02-.95-1.36-1.59-.34-.64-.5-1.41-.48-2.29h3.06c0,.48.09.89.26,1.23Z"/>
        <path class="cls-3" d="M459.07,155.73c.32-.92.79-1.72,1.39-2.41.6-.68,1.35-1.22,2.22-1.61.88-.39,1.87-.58,2.97-.58s2.11.19,2.98.58c.87.39,1.61.93,2.21,1.61.6.68,1.07,1.49,1.39,2.41.32.92.48,1.92.48,2.99s-.16,2.02-.48,2.93c-.32.91-.78,1.69-1.39,2.37-.6.67-1.34,1.2-2.21,1.58-.87.38-1.87.57-2.98.57s-2.09-.19-2.97-.57c-.88-.38-1.62-.91-2.22-1.58-.6-.67-1.07-1.46-1.39-2.37-.32-.91-.48-1.88-.48-2.93s.16-2.07.48-2.99ZM461.96,160.48c.14.57.37,1.08.67,1.54s.71.82,1.21,1.1c.5.27,1.1.41,1.81.41s1.31-.14,1.81-.41c.5-.28.9-.64,1.21-1.1s.53-.97.67-1.54c.14-.57.21-1.16.21-1.76s-.07-1.24-.21-1.83c-.14-.59-.37-1.12-.67-1.58s-.71-.83-1.21-1.11c-.5-.27-1.1-.41-1.81-.41s-1.31.14-1.81.41c-.5.28-.9.64-1.21,1.11s-.53.99-.67,1.58c-.14.59-.21,1.2-.21,1.83s.07,1.19.21,1.76Z"/>
        <path class="cls-3" d="M485.76,151.47c.64,0,1.22.1,1.74.31s.96.49,1.33.85c.37.36.65.78.84,1.26.19.48.29.99.29,1.54,0,.84-.18,1.58-.53,2.19s-.94,1.09-1.74,1.41v.04c.39.11.71.27.97.49.25.22.46.48.62.78.16.3.28.63.35,1,.07.36.12.72.15,1.09.01.23.03.5.04.81.01.31.04.62.07.95.03.32.09.63.16.92.07.29.18.53.33.73h-3.16c-.17-.46-.28-1-.32-1.63-.04-.63-.1-1.23-.18-1.81-.11-.75-.34-1.3-.68-1.65-.35-.35-.92-.52-1.71-.52h-3.16v5.62h-3.16v-14.37h7.75ZM484.63,157.97c.72,0,1.27-.16,1.63-.48s.54-.85.54-1.57-.18-1.2-.54-1.52-.91-.47-1.63-.47h-3.46v4.04h3.46Z"/>
        <path class="cls-3" d="M502.84,151.47l5.37,14.37h-3.28l-1.09-3.2h-5.37l-1.13,3.2h-3.18l5.43-14.37h3.24ZM503.02,160.29l-1.81-5.27h-.04l-1.87,5.27h3.72Z"/>
        <path class="cls-3" d="M527.82,151.47c.9,0,1.66.13,2.29.39.63.26,1.14.61,1.54,1.04.4.43.68.92.87,1.47.18.55.27,1.12.27,1.71s-.09,1.14-.27,1.7c-.18.56-.47,1.05-.87,1.48-.4.43-.91.78-1.54,1.04-.63.26-1.4.39-2.29.39h-3.32v5.15h-3.16v-14.37h6.48ZM526.95,158.23c.36,0,.71-.03,1.05-.08.33-.05.63-.16.89-.31.25-.15.46-.37.61-.65.15-.28.23-.65.23-1.11s-.08-.83-.23-1.11c-.15-.28-.36-.5-.61-.65s-.55-.26-.89-.31c-.34-.05-.68-.08-1.05-.08h-2.46v4.31h2.46Z"/>
        <path class="cls-3" d="M545.65,151.47c.64,0,1.22.1,1.74.31s.96.49,1.33.85c.37.36.65.78.84,1.26.19.48.29.99.29,1.54,0,.84-.18,1.58-.53,2.19s-.94,1.09-1.74,1.41v.04c.39.11.71.27.97.49.25.22.46.48.62.78.16.3.28.63.35,1,.07.36.12.72.15,1.09.01.23.03.5.04.81.01.31.04.62.07.95.03.32.09.63.16.92.07.29.18.53.33.73h-3.16c-.17-.46-.28-1-.32-1.63-.04-.63-.1-1.23-.18-1.81-.11-.75-.34-1.3-.68-1.65-.35-.35-.92-.52-1.71-.52h-3.16v5.62h-3.16v-14.37h7.75ZM544.52,157.97c.72,0,1.27-.16,1.63-.48s.54-.85.54-1.57-.18-1.2-.54-1.52-.91-.47-1.63-.47h-3.46v4.04h3.46Z"/>
        <path class="cls-3" d="M555.43,155.73c.32-.92.78-1.72,1.39-2.41.6-.68,1.34-1.22,2.22-1.61.88-.39,1.87-.58,2.97-.58s2.11.19,2.98.58c.87.39,1.61.93,2.21,1.61s1.07,1.49,1.39,2.41.48,1.92.48,2.99-.16,2.02-.48,2.93c-.32.91-.79,1.69-1.39,2.37s-1.34,1.2-2.21,1.58c-.87.38-1.86.57-2.98.57s-2.09-.19-2.97-.57c-.88-.38-1.62-.91-2.22-1.58-.6-.67-1.07-1.46-1.39-2.37-.32-.91-.48-1.88-.48-2.93s.16-2.07.48-2.99ZM558.32,160.48c.14.57.37,1.08.67,1.54s.71.82,1.21,1.1c.5.27,1.1.41,1.81.41s1.32-.14,1.81-.41c.5-.28.9-.64,1.21-1.1.31-.46.53-.97.67-1.54s.21-1.16.21-1.76-.07-1.24-.21-1.83c-.14-.59-.37-1.12-.67-1.58-.31-.46-.71-.83-1.21-1.11-.5-.27-1.1-.41-1.81-.41s-1.31.14-1.81.41c-.5.28-.9.64-1.21,1.11s-.53.99-.67,1.58c-.14.59-.21,1.2-.21,1.83s.07,1.19.21,1.76Z"/>
        <path class="cls-3" d="M580.56,151.47c.93,0,1.79.15,2.59.44.8.29,1.49.74,2.07,1.33.58.59,1.04,1.33,1.37,2.21.33.89.49,1.93.49,3.12,0,1.05-.13,2.01-.4,2.9-.27.89-.67,1.65-1.22,2.29-.54.64-1.22,1.15-2.03,1.52-.81.37-1.77.55-2.87.55h-6.2v-14.37h6.2ZM580.34,163.18c.46,0,.9-.07,1.33-.22.43-.15.81-.39,1.15-.73s.6-.79.8-1.34c.2-.55.3-1.22.3-2.01,0-.72-.07-1.38-.21-1.96-.14-.58-.37-1.08-.69-1.5-.32-.42-.75-.73-1.28-.96-.53-.22-1.18-.33-1.96-.33h-2.25v9.06h2.82Z"/>
        <path class="cls-3" d="M602.98,164.74c-1.09.95-2.59,1.42-4.51,1.42s-3.45-.47-4.52-1.41c-1.07-.94-1.6-2.39-1.6-4.35v-8.94h3.16v8.94c0,.39.03.77.1,1.15.07.38.21.71.42,1,.21.29.51.52.9.7.38.18.9.27,1.54.27,1.13,0,1.9-.25,2.33-.75.43-.5.64-1.29.64-2.36v-8.94h3.16v8.94c0,1.95-.54,3.39-1.63,4.34Z"/>
        <path class="cls-3" d="M619.68,155.3c-.19-.3-.42-.57-.7-.79-.28-.23-.6-.41-.96-.53s-.73-.19-1.12-.19c-.71,0-1.31.14-1.81.41-.5.28-.9.64-1.21,1.11s-.53.99-.67,1.58c-.14.59-.21,1.2-.21,1.83s.07,1.19.21,1.76.37,1.08.67,1.54.71.82,1.21,1.1c.5.27,1.1.41,1.81.41.97,0,1.72-.29,2.26-.89.54-.59.88-1.37,1-2.33h3.06c-.08.9-.29,1.71-.62,2.43-.33.72-.78,1.34-1.33,1.85-.55.51-1.19.9-1.93,1.17-.74.27-1.55.4-2.44.4-1.1,0-2.09-.19-2.97-.57-.88-.38-1.62-.91-2.22-1.58-.6-.67-1.07-1.46-1.39-2.37-.32-.91-.48-1.88-.48-2.93s.16-2.07.48-2.99c.32-.92.78-1.72,1.39-2.41.6-.68,1.34-1.22,2.22-1.61.88-.39,1.87-.58,2.97-.58.79,0,1.54.11,2.24.34.7.23,1.33.56,1.89,1,.56.44,1.02.98,1.38,1.62.36.64.59,1.38.68,2.21h-3.06c-.05-.36-.17-.69-.36-1Z"/>
        <path class="cls-3" d="M627.39,154.13v-2.66h11.77v2.66h-4.31v11.71h-3.16v-11.71h-4.31Z"/>
        <path class="cls-3" d="M643.81,155.73c.32-.92.78-1.72,1.39-2.41.6-.68,1.34-1.22,2.22-1.61.88-.39,1.87-.58,2.97-.58s2.11.19,2.98.58c.87.39,1.61.93,2.21,1.61s1.07,1.49,1.39,2.41.48,1.92.48,2.99-.16,2.02-.48,2.93c-.32.91-.79,1.69-1.39,2.37s-1.34,1.2-2.21,1.58c-.87.38-1.86.57-2.98.57s-2.09-.19-2.97-.57c-.88-.38-1.62-.91-2.22-1.58-.6-.67-1.07-1.46-1.39-2.37-.32-.91-.48-1.88-.48-2.93s.16-2.07.48-2.99ZM646.7,160.48c.14.57.37,1.08.67,1.54s.71.82,1.21,1.1c.5.27,1.1.41,1.81.41s1.32-.14,1.81-.41c.5-.28.9-.64,1.21-1.1.31-.46.53-.97.67-1.54s.21-1.16.21-1.76-.07-1.24-.21-1.83c-.14-.59-.37-1.12-.67-1.58-.31-.46-.71-.83-1.21-1.11-.5-.27-1.1-.41-1.81-.41s-1.31.14-1.81.41c-.5.28-.9.64-1.21,1.11s-.53.99-.67,1.58c-.14.59-.21,1.2-.21,1.83s.07,1.19.21,1.76Z"/>
        <path class="cls-3" d="M670.5,151.47c.64,0,1.22.1,1.74.31s.96.49,1.33.85c.37.36.65.78.84,1.26.19.48.29.99.29,1.54,0,.84-.18,1.58-.53,2.19s-.94,1.09-1.74,1.41v.04c.39.11.71.27.97.49.25.22.46.48.62.78.16.3.28.63.35,1,.07.36.12.72.15,1.09.01.23.03.5.04.81.01.31.04.62.07.95.03.32.09.63.16.92.07.29.18.53.33.73h-3.16c-.17-.46-.28-1-.32-1.63-.04-.63-.1-1.23-.18-1.81-.11-.75-.34-1.3-.68-1.65-.35-.35-.92-.52-1.71-.52h-3.16v5.62h-3.16v-14.37h7.75ZM669.37,157.97c.72,0,1.27-.16,1.63-.48s.54-.85.54-1.57-.18-1.2-.54-1.52-.91-.47-1.63-.47h-3.46v4.04h3.46Z"/>
        <path class="cls-3" d="M687.58,151.47l5.37,14.37h-3.28l-1.09-3.2h-5.37l-1.13,3.2h-3.18l5.43-14.37h3.24ZM687.77,160.29l-1.81-5.27h-.04l-1.87,5.27h3.72Z"/>
        <path class="cls-3" d="M712.28,151.47c.93,0,1.79.15,2.59.44.8.29,1.49.74,2.07,1.33.58.59,1.04,1.33,1.37,2.21.33.89.49,1.93.49,3.12,0,1.05-.13,2.01-.4,2.9-.27.89-.67,1.65-1.22,2.29-.54.64-1.22,1.15-2.03,1.52-.81.37-1.77.55-2.87.55h-6.2v-14.37h6.2ZM712.06,163.18c.46,0,.9-.07,1.33-.22.43-.15.81-.39,1.15-.73s.6-.79.8-1.34c.2-.55.3-1.22.3-2.01,0-.72-.07-1.38-.21-1.96-.14-.58-.37-1.08-.69-1.5-.32-.42-.75-.73-1.28-.96-.53-.22-1.18-.33-1.96-.33h-2.25v9.06h2.82Z"/>
        <path class="cls-3" d="M734.88,151.47v2.66h-7.59v3.08h6.96v2.46h-6.96v3.52h7.75v2.66h-10.91v-14.37h10.75Z"/>
        <path class="cls-3" d="M751.46,162.3c.17.34.41.61.69.82.29.21.63.36,1.02.46.39.1.79.15,1.21.15.28,0,.58-.02.91-.07.32-.05.62-.14.91-.27.28-.13.52-.32.7-.55.19-.23.28-.53.28-.9,0-.39-.12-.7-.37-.95-.25-.24-.57-.44-.98-.6s-.86-.3-1.37-.42c-.51-.12-1.03-.25-1.55-.4-.54-.13-1.06-.3-1.57-.49s-.97-.45-1.37-.75-.73-.69-.98-1.16-.37-1.02-.37-1.68c0-.74.16-1.38.47-1.92s.73-1,1.24-1.36,1.09-.63,1.73-.8c.64-.17,1.29-.26,1.93-.26.75,0,1.47.08,2.16.25.69.17,1.3.44,1.84.82.54.38.96.86,1.28,1.44.32.58.47,1.29.47,2.12h-3.06c-.03-.43-.12-.79-.27-1.07-.15-.28-.36-.5-.61-.66s-.55-.27-.88-.34c-.33-.07-.69-.1-1.08-.1-.25,0-.51.03-.76.08-.25.05-.49.15-.69.28s-.38.3-.51.5c-.13.2-.2.46-.2.76,0,.28.05.51.16.68s.32.33.63.48c.31.15.75.3,1.31.44s1.28.33,2.18.56c.27.05.64.15,1.12.29.48.14.95.37,1.42.67.47.31.88.72,1.22,1.24.34.52.51,1.18.51,1.98,0,.66-.13,1.27-.38,1.83s-.63,1.05-1.14,1.46-1.13.73-1.87.96c-.74.23-1.61.34-2.59.34-.79,0-1.56-.1-2.3-.29-.75-.19-1.4-.5-1.97-.92-.57-.42-1.02-.95-1.36-1.59-.33-.64-.5-1.41-.48-2.29h3.06c0,.48.09.89.26,1.23Z"/>
        <path class="cls-3" d="M775.99,151.47v2.66h-7.59v3.08h6.96v2.46h-6.96v3.52h7.75v2.66h-10.91v-14.37h10.75Z"/>
        <path class="cls-3" d="M789.94,165.73c-.68.29-1.38.43-2.07.43-1.1,0-2.09-.19-2.97-.57-.88-.38-1.62-.91-2.22-1.58-.6-.67-1.07-1.46-1.39-2.37-.32-.91-.48-1.88-.48-2.93s.16-2.07.48-2.99c.32-.92.78-1.72,1.39-2.41.6-.68,1.34-1.22,2.22-1.61.88-.39,1.87-.58,2.97-.58.74,0,1.45.11,2.14.33s1.31.55,1.87.98c.56.43,1.02.96,1.38,1.59.36.63.58,1.36.66,2.17h-3.02c-.19-.8-.55-1.41-1.09-1.81-.54-.4-1.19-.6-1.95-.6-.71,0-1.31.14-1.81.41-.5.28-.9.64-1.21,1.11s-.53.99-.67,1.58c-.14.59-.21,1.2-.21,1.83s.07,1.19.21,1.76.37,1.08.67,1.54.71.82,1.21,1.1c.5.27,1.1.41,1.81.41,1.05,0,1.85-.26,2.43-.79.57-.53.9-1.3,1-2.3h-3.18v-2.36h6.04v7.77h-2.01l-.32-1.63c-.56.72-1.19,1.23-1.87,1.52Z"/>
        <path class="cls-3" d="M810.41,164.74c-1.09.95-2.59,1.42-4.51,1.42s-3.45-.47-4.52-1.41c-1.07-.94-1.6-2.39-1.6-4.35v-8.94h3.16v8.94c0,.39.03.77.1,1.15.07.38.21.71.42,1,.21.29.51.52.9.7.38.18.9.27,1.54.27,1.13,0,1.9-.25,2.33-.75.43-.5.64-1.29.64-2.36v-8.94h3.16v8.94c0,1.95-.54,3.39-1.63,4.34Z"/>
        <path class="cls-3" d="M825.64,151.47c.64,0,1.22.1,1.74.31s.96.49,1.33.85c.37.36.65.78.84,1.26.19.48.29.99.29,1.54,0,.84-.18,1.58-.53,2.19s-.94,1.09-1.74,1.41v.04c.39.11.71.27.97.49.25.22.46.48.62.78.16.3.28.63.35,1,.07.36.12.72.15,1.09.01.23.03.5.04.81.01.31.04.62.07.95.03.32.09.63.16.92.07.29.18.53.33.73h-3.16c-.17-.46-.28-1-.32-1.63-.04-.63-.1-1.23-.18-1.81-.11-.75-.34-1.3-.68-1.65-.35-.35-.92-.52-1.71-.52h-3.16v5.62h-3.16v-14.37h7.75ZM824.51,157.97c.72,0,1.27-.16,1.63-.48s.54-.85.54-1.57-.18-1.2-.54-1.52-.91-.47-1.63-.47h-3.46v4.04h3.46Z"/>
        <path class="cls-3" d="M835.42,155.73c.32-.92.78-1.72,1.39-2.41.6-.68,1.34-1.22,2.22-1.61.88-.39,1.87-.58,2.97-.58s2.11.19,2.98.58c.87.39,1.61.93,2.21,1.61s1.07,1.49,1.39,2.41.48,1.92.48,2.99-.16,2.02-.48,2.93c-.32.91-.79,1.69-1.39,2.37s-1.34,1.2-2.21,1.58c-.87.38-1.86.57-2.98.57s-2.09-.19-2.97-.57c-.88-.38-1.62-.91-2.22-1.58-.6-.67-1.07-1.46-1.39-2.37-.32-.91-.48-1.88-.48-2.93s.16-2.07.48-2.99ZM838.31,160.48c.14.57.37,1.08.67,1.54s.71.82,1.21,1.1c.5.27,1.1.41,1.81.41s1.32-.14,1.81-.41c.5-.28.9-.64,1.21-1.1.31-.46.53-.97.67-1.54s.21-1.16.21-1.76-.07-1.24-.21-1.83c-.14-.59-.37-1.12-.67-1.58-.31-.46-.71-.83-1.21-1.11-.5-.27-1.1-.41-1.81-.41s-1.31.14-1.81.41c-.5.28-.9.64-1.21,1.11s-.53.99-.67,1.58c-.14.59-.21,1.2-.21,1.83s.07,1.19.21,1.76Z"/>
        <path class="cls-3" d="M856.77,162.3c.17.34.41.61.69.82.29.21.63.36,1.02.46.39.1.79.15,1.21.15.28,0,.58-.02.91-.07.32-.05.62-.14.91-.27.28-.13.52-.32.7-.55.19-.23.28-.53.28-.9,0-.39-.12-.7-.37-.95-.25-.24-.57-.44-.98-.6s-.86-.3-1.37-.42c-.51-.12-1.03-.25-1.55-.4-.54-.13-1.06-.3-1.57-.49s-.97-.45-1.37-.75-.73-.69-.98-1.16-.37-1.02-.37-1.68c0-.74.16-1.38.47-1.92s.73-1,1.24-1.36,1.09-.63,1.73-.8c.64-.17,1.29-.26,1.93-.26.75,0,1.47.08,2.16.25.69.17,1.3.44,1.84.82.54.38.96.86,1.28,1.44.32.58.47,1.29.47,2.12h-3.06c-.03-.43-.12-.79-.27-1.07-.15-.28-.36-.5-.61-.66s-.55-.27-.88-.34c-.33-.07-.69-.1-1.08-.1-.25,0-.51.03-.76.08-.25.05-.49.15-.69.28s-.38.3-.51.5c-.13.2-.2.46-.2.76,0,.28.05.51.16.68s.32.33.63.48c.31.15.75.3,1.31.44s1.28.33,2.18.56c.27.05.64.15,1.12.29.48.14.95.37,1.42.67.47.31.88.72,1.22,1.24.34.52.51,1.18.51,1.98,0,.66-.13,1.27-.38,1.83s-.63,1.05-1.14,1.46-1.13.73-1.87.96c-.74.23-1.61.34-2.59.34-.79,0-1.56-.1-2.3-.29-.75-.19-1.4-.5-1.97-.92-.57-.42-1.02-.95-1.36-1.59-.33-.64-.5-1.41-.48-2.29h3.06c0,.48.09.89.26,1.23Z"/>
      </g>
    </g>
    <g>
      <path class="cls-3" d="M132.76,95.4c-3.98,2.71-7.96,5.41-11.98,8.06-7.98,5.28-14.93,11.37-17.42,21.13-.92,3.61-1.46,7.29-.22,10.94.72,2.13,2.14,3.52,4.64,3.5,3.73-.03,5.62-.94,6.5-3.44,1.03-2.95.43-5.99.26-8.98-.14-2.85.26-5.65,1.29-8.22,1.33-3.32,3.95-5.62,6.97-7.57,6.63-4.28,13.11-8.79,19.73-13.09,5.08-3.29,8.25-7.8,9.23-13.74,1.57-9.47,1.32-18.99.45-28.5-.36-3.94-1.42-7.78-3.72-11.08-3.92-5.59-9.92-7.02-16.16-7.15-11.51-.25-23.03-.08-34.55-.07-4.88,0-8.21-1.97-9.55-5.67-.17-.5-.38-.92-.97-.95-.8-.03-1.64-.21-2.25.57-3.92,5-5.49,10.69-5,16.99.36,4.58,3.5,8.25,7.94,9.32,3.98.95,8.02.44,12.03.58,11.97.39,23.96-.84,35.91.77,4.13.55,7.18,3.43,7.87,7.49.76,4.51.39,9.04.36,13.56-.06,9.3-11.35,15.54-11.35,15.54Z"/>
      <path class="cls-3" d="M93.42,116.32h-.07v-43.48c0-.43.1-.93-.42-1.14-.57-.24-1.19-.21-1.64.18-3.8,3.34-6.39,7.48-6.41,12.59-.1,27.09-.03,54.18-.03,81.26,0,.62.07,1.17.74,1.46.66.29,1.28.42,1.92-.03.39-.27.81-.49,1.19-.77,2.29-1.66,4.67-3.35,4.69-6.55.05-14.51.02-29.02.02-43.53ZM90.35,75.59c.06-.02.13-.03.18-.03-.05,0-.12.01-.18.03ZM90.57,75.56s.03,0,.03,0h0s-.02,0-.03,0Z"/>
    </g>
  </g>
</svg>