<?xml version="1.0" encoding="UTF-8" standalone="no"?>
<svg
   id="Capa_1"
   data-name="Capa 1"
   viewBox="0 0 74594.533 105099.16"
   version="1.1"
   width="74594.531"
   height="105099.16"
   xmlns="http://www.w3.org/2000/svg"
   xmlns:svg="http://www.w3.org/2000/svg">
  <defs
     id="defs1">
    <style
       id="style1">
      .cls-1 {
        fill: #000;
      }

      .cls-1, .cls-2 {
        stroke-width: 0px;
      }

      .cls-2 {
        fill: #fff;
      }
    </style>
  </defs>
  <g
     id="g3">
    <ellipse
       style="fill:#ffffff;fill-opacity:1;stroke-width:0.963154"
       id="path6"
       cx="136.78648"
       cy="162.89845"
       rx="111.07626"
       ry="103.04182" />
    <path
       class="cls-1"
       d="m 147.67,73.28 c -1.92,0 -3.82,0.07 -5.7,0.19 46.39,2.94 83.1,41.49 83.1,88.62 0,47.13 -36.71,85.68 -83.1,88.62 1.89,0.12 3.79,0.19 5.7,0.19 49.05,0 88.8,-39.76 88.8,-88.8 0,-49.04 -39.76,-88.82 -88.8,-88.82 z"
       id="path2"
       style="fill:#969da4;fill-opacity:1" />
    <path
       class="cls-1"
       d="m 47.45,162.08 c 0,-47.22 36.88,-85.84 83.41,-88.63 -1.79,-0.11 -3.59,-0.17 -5.4,-0.17 -49.05,0 -88.81,39.76 -88.81,88.8 0,49.04 39.76,88.8 88.8,88.8 1.81,0 3.61,-0.06 5.4,-0.17 -46.53,-2.79 -83.4,-41.41 -83.4,-88.64 v 0 z"
       id="path3"
       style="fill:#969da4;fill-opacity:1" />
  </g>
  <g
     id="g5">
    <path
       class="cls-1"
       d="m 152.91,158.5 c -3.98,2.71 -7.96,5.41 -11.98,8.06 -7.98,5.28 -14.93,11.37 -17.42,21.13 -0.92,3.61 -1.46,7.29 -0.22,10.94 0.72,2.13 2.14,3.52 4.64,3.5 3.73,-0.03 5.62,-0.94 6.5,-3.44 1.03,-2.95 0.43,-5.99 0.26,-8.98 -0.14,-2.85 0.26,-5.65 1.29,-8.22 1.33,-3.32 3.95,-5.62 6.97,-7.57 6.63,-4.28 13.11,-8.79 19.73,-13.09 5.08,-3.29 8.25,-7.8 9.23,-13.74 1.57,-9.47 1.32,-18.99 0.45,-28.5 -0.36,-3.94 -1.42,-7.78 -3.72,-11.08 -3.92,-5.59 -9.92,-7.02 -16.16,-7.15 -11.51,-0.25 -23.03,-0.08 -34.55,-0.07 -4.88,0 -8.21,-1.97 -9.55,-5.67 -0.17,-0.5 -0.38,-0.92 -0.97,-0.95 -0.8,-0.03 -1.64,-0.21 -2.25,0.57 -3.92,5 -5.49,10.69 -5,16.99 0.36,4.58 3.5,8.25 7.94,9.32 3.98,0.95 8.02,0.44 12.03,0.58 11.97,0.39 23.96,-0.84 35.91,0.77 4.13,0.55 7.18,3.43 7.87,7.49 0.76,4.51 0.39,9.04 0.36,13.56 -0.06,9.3 -11.35,15.54 -11.35,15.54 v 0 z"
       id="path4"
       style="fill:#233571;fill-opacity:1" />
    <path
       class="cls-1"
       d="m 113.57,179.42 h -0.07 v -43.48 c 0,-0.43 0.1,-0.93 -0.42,-1.14 -0.57,-0.24 -1.19,-0.21 -1.64,0.18 -3.8,3.34 -6.39,7.48 -6.41,12.59 -0.1,27.09 -0.03,54.18 -0.03,81.26 0,0.62 0.07,1.17 0.74,1.46 0.66,0.29 1.28,0.42 1.92,-0.03 0.39,-0.27 0.81,-0.49 1.19,-0.77 2.29,-1.66 4.67,-3.35 4.69,-6.55 0.05,-14.51 0.02,-29.02 0.02,-43.53 v 0 z m -3.06,-40.73 c 0.06,-0.02 0.13,-0.03 0.18,-0.03 -0.05,0 -0.12,0.01 -0.18,0.03 z m 0.21,-0.02 h 0.03 z"
       id="path5"
       style="fill:#233571;fill-opacity:1" />
  </g>
</svg>
